<mxfile host="app.diagrams.net" agent="Mozilla/5.0 (Windows NT 10.0; Win64; x64) AppleWebKit/537.36 (KHTML, like Gecko) Chrome/138.0.0.0 Safari/537.36" version="28.0.6">
  <diagram name="Página-1" id="2fZBQ1506uBiVGnHBUQl">
    <mxGraphModel dx="1042" dy="1777" grid="1" gridSize="10" guides="1" tooltips="1" connect="1" arrows="1" fold="1" page="1" pageScale="1" pageWidth="827" pageHeight="1169" math="0" shadow="0">
      <root>
        <mxCell id="0" />
        <mxCell id="1" parent="0" />
        <mxCell id="Cb7vbwdoOXR-NI_GIhor-19" style="edgeStyle=orthogonalEdgeStyle;rounded=0;orthogonalLoop=1;jettySize=auto;html=1;exitX=0.25;exitY=0;exitDx=0;exitDy=0;entryX=1;entryY=0.5;entryDx=0;entryDy=0;" edge="1" parent="1" source="Cb7vbwdoOXR-NI_GIhor-1" target="Cb7vbwdoOXR-NI_GIhor-5">
          <mxGeometry relative="1" as="geometry" />
        </mxCell>
        <mxCell id="Cb7vbwdoOXR-NI_GIhor-20" style="edgeStyle=orthogonalEdgeStyle;rounded=0;orthogonalLoop=1;jettySize=auto;html=1;exitX=0.75;exitY=0;exitDx=0;exitDy=0;entryX=0;entryY=0.5;entryDx=0;entryDy=0;" edge="1" parent="1" source="Cb7vbwdoOXR-NI_GIhor-1" target="Cb7vbwdoOXR-NI_GIhor-4">
          <mxGeometry relative="1" as="geometry" />
        </mxCell>
        <mxCell id="Cb7vbwdoOXR-NI_GIhor-21" style="edgeStyle=orthogonalEdgeStyle;rounded=0;orthogonalLoop=1;jettySize=auto;html=1;exitX=1;exitY=0.5;exitDx=0;exitDy=0;entryX=0;entryY=0.5;entryDx=0;entryDy=0;" edge="1" parent="1" source="Cb7vbwdoOXR-NI_GIhor-1" target="Cb7vbwdoOXR-NI_GIhor-6">
          <mxGeometry relative="1" as="geometry" />
        </mxCell>
        <mxCell id="Cb7vbwdoOXR-NI_GIhor-22" style="edgeStyle=orthogonalEdgeStyle;rounded=0;orthogonalLoop=1;jettySize=auto;html=1;exitX=0.5;exitY=1;exitDx=0;exitDy=0;entryX=0.5;entryY=0;entryDx=0;entryDy=0;" edge="1" parent="1" source="Cb7vbwdoOXR-NI_GIhor-1" target="Cb7vbwdoOXR-NI_GIhor-7">
          <mxGeometry relative="1" as="geometry" />
        </mxCell>
        <mxCell id="Cb7vbwdoOXR-NI_GIhor-32" style="edgeStyle=orthogonalEdgeStyle;rounded=0;orthogonalLoop=1;jettySize=auto;html=1;exitX=0.75;exitY=1;exitDx=0;exitDy=0;entryX=0;entryY=0;entryDx=0;entryDy=0;" edge="1" parent="1" source="Cb7vbwdoOXR-NI_GIhor-33" target="Cb7vbwdoOXR-NI_GIhor-2">
          <mxGeometry relative="1" as="geometry" />
        </mxCell>
        <mxCell id="Cb7vbwdoOXR-NI_GIhor-1" value="Cliente" style="rounded=0;whiteSpace=wrap;html=1;fillColor=#ffcd28;strokeColor=#d79b00;gradientColor=#ffa500;" vertex="1" parent="1">
          <mxGeometry x="140" y="120" width="120" height="60" as="geometry" />
        </mxCell>
        <mxCell id="Cb7vbwdoOXR-NI_GIhor-28" style="edgeStyle=orthogonalEdgeStyle;rounded=0;orthogonalLoop=1;jettySize=auto;html=1;exitX=1;exitY=0.5;exitDx=0;exitDy=0;entryX=0;entryY=0.5;entryDx=0;entryDy=0;" edge="1" parent="1" source="Cb7vbwdoOXR-NI_GIhor-2" target="Cb7vbwdoOXR-NI_GIhor-10">
          <mxGeometry relative="1" as="geometry" />
        </mxCell>
        <mxCell id="Cb7vbwdoOXR-NI_GIhor-29" style="edgeStyle=orthogonalEdgeStyle;rounded=0;orthogonalLoop=1;jettySize=auto;html=1;exitX=0.75;exitY=1;exitDx=0;exitDy=0;entryX=0;entryY=0;entryDx=0;entryDy=0;" edge="1" parent="1" source="Cb7vbwdoOXR-NI_GIhor-2" target="Cb7vbwdoOXR-NI_GIhor-18">
          <mxGeometry relative="1" as="geometry" />
        </mxCell>
        <mxCell id="Cb7vbwdoOXR-NI_GIhor-30" style="edgeStyle=orthogonalEdgeStyle;rounded=0;orthogonalLoop=1;jettySize=auto;html=1;exitX=0.25;exitY=1;exitDx=0;exitDy=0;entryX=1;entryY=0;entryDx=0;entryDy=0;" edge="1" parent="1" source="Cb7vbwdoOXR-NI_GIhor-2" target="Cb7vbwdoOXR-NI_GIhor-9">
          <mxGeometry relative="1" as="geometry" />
        </mxCell>
        <mxCell id="Cb7vbwdoOXR-NI_GIhor-31" style="edgeStyle=orthogonalEdgeStyle;rounded=0;orthogonalLoop=1;jettySize=auto;html=1;exitX=0;exitY=0.25;exitDx=0;exitDy=0;entryX=1;entryY=0.5;entryDx=0;entryDy=0;" edge="1" parent="1" source="Cb7vbwdoOXR-NI_GIhor-2" target="Cb7vbwdoOXR-NI_GIhor-17">
          <mxGeometry relative="1" as="geometry" />
        </mxCell>
        <mxCell id="Cb7vbwdoOXR-NI_GIhor-35" style="edgeStyle=orthogonalEdgeStyle;rounded=0;orthogonalLoop=1;jettySize=auto;html=1;exitX=1;exitY=0;exitDx=0;exitDy=0;entryX=0;entryY=1;entryDx=0;entryDy=0;" edge="1" parent="1" source="Cb7vbwdoOXR-NI_GIhor-36" target="Cb7vbwdoOXR-NI_GIhor-3">
          <mxGeometry relative="1" as="geometry">
            <Array as="points">
              <mxPoint x="560" y="365" />
              <mxPoint x="730" y="365" />
            </Array>
          </mxGeometry>
        </mxCell>
        <mxCell id="Cb7vbwdoOXR-NI_GIhor-2" value="Pedido" style="rounded=0;whiteSpace=wrap;html=1;fillColor=#ffcd28;strokeColor=#d79b00;gradientColor=#ffa500;" vertex="1" parent="1">
          <mxGeometry x="370" y="550" width="120" height="60" as="geometry" />
        </mxCell>
        <mxCell id="Cb7vbwdoOXR-NI_GIhor-24" style="edgeStyle=orthogonalEdgeStyle;rounded=0;orthogonalLoop=1;jettySize=auto;html=1;exitX=0;exitY=0;exitDx=0;exitDy=0;entryX=0.5;entryY=1;entryDx=0;entryDy=0;" edge="1" parent="1" source="Cb7vbwdoOXR-NI_GIhor-3" target="Cb7vbwdoOXR-NI_GIhor-8">
          <mxGeometry relative="1" as="geometry" />
        </mxCell>
        <mxCell id="Cb7vbwdoOXR-NI_GIhor-25" style="edgeStyle=orthogonalEdgeStyle;rounded=0;orthogonalLoop=1;jettySize=auto;html=1;exitX=0.75;exitY=1;exitDx=0;exitDy=0;entryX=0.5;entryY=0;entryDx=0;entryDy=0;" edge="1" parent="1" source="Cb7vbwdoOXR-NI_GIhor-3" target="Cb7vbwdoOXR-NI_GIhor-13">
          <mxGeometry relative="1" as="geometry" />
        </mxCell>
        <mxCell id="Cb7vbwdoOXR-NI_GIhor-26" style="edgeStyle=orthogonalEdgeStyle;rounded=0;orthogonalLoop=1;jettySize=auto;html=1;exitX=1;exitY=0.25;exitDx=0;exitDy=0;entryX=0.5;entryY=1;entryDx=0;entryDy=0;" edge="1" parent="1" source="Cb7vbwdoOXR-NI_GIhor-3" target="Cb7vbwdoOXR-NI_GIhor-15">
          <mxGeometry relative="1" as="geometry" />
        </mxCell>
        <mxCell id="Cb7vbwdoOXR-NI_GIhor-3" value="Producto" style="rounded=0;whiteSpace=wrap;html=1;fillColor=#ffcd28;strokeColor=#d79b00;gradientColor=#ffa500;" vertex="1" parent="1">
          <mxGeometry x="730" y="120" width="120" height="60" as="geometry" />
        </mxCell>
        <mxCell id="Cb7vbwdoOXR-NI_GIhor-4" value="Nombre" style="ellipse;whiteSpace=wrap;html=1;" vertex="1" parent="1">
          <mxGeometry x="260" width="120" height="80" as="geometry" />
        </mxCell>
        <mxCell id="Cb7vbwdoOXR-NI_GIhor-5" value="Id Cliente" style="ellipse;whiteSpace=wrap;html=1;fillColor=#f5f5f5;gradientColor=#b3b3b3;strokeColor=#666666;" vertex="1" parent="1">
          <mxGeometry y="40" width="120" height="80" as="geometry" />
        </mxCell>
        <mxCell id="Cb7vbwdoOXR-NI_GIhor-6" value="Telefono" style="ellipse;whiteSpace=wrap;html=1;" vertex="1" parent="1">
          <mxGeometry x="310" y="130" width="120" height="80" as="geometry" />
        </mxCell>
        <mxCell id="Cb7vbwdoOXR-NI_GIhor-7" value="Correo" style="ellipse;whiteSpace=wrap;html=1;" vertex="1" parent="1">
          <mxGeometry x="110" y="230" width="120" height="80" as="geometry" />
        </mxCell>
        <mxCell id="Cb7vbwdoOXR-NI_GIhor-8" value="Id Producto" style="ellipse;whiteSpace=wrap;html=1;fillColor=#f5f5f5;strokeColor=#666666;gradientColor=#b3b3b3;" vertex="1" parent="1">
          <mxGeometry x="650" y="-20" width="120" height="80" as="geometry" />
        </mxCell>
        <mxCell id="Cb7vbwdoOXR-NI_GIhor-9" value="Fecha de pedido" style="ellipse;whiteSpace=wrap;html=1;" vertex="1" parent="1">
          <mxGeometry x="270" y="630" width="120" height="80" as="geometry" />
        </mxCell>
        <mxCell id="Cb7vbwdoOXR-NI_GIhor-10" value="Id Pedido" style="ellipse;whiteSpace=wrap;html=1;fillColor=#f5f5f5;gradientColor=#b3b3b3;strokeColor=#666666;" vertex="1" parent="1">
          <mxGeometry x="520" y="560" width="120" height="80" as="geometry" />
        </mxCell>
        <mxCell id="Cb7vbwdoOXR-NI_GIhor-13" value="Tamaño" style="ellipse;whiteSpace=wrap;html=1;" vertex="1" parent="1">
          <mxGeometry x="750" y="260" width="120" height="80" as="geometry" />
        </mxCell>
        <mxCell id="Cb7vbwdoOXR-NI_GIhor-14" value="Sabor" style="ellipse;whiteSpace=wrap;html=1;" vertex="1" parent="1">
          <mxGeometry x="550" y="150" width="120" height="80" as="geometry" />
        </mxCell>
        <mxCell id="Cb7vbwdoOXR-NI_GIhor-15" value="Tipo de producto" style="ellipse;whiteSpace=wrap;html=1;" vertex="1" parent="1">
          <mxGeometry x="860" y="30" width="120" height="80" as="geometry" />
        </mxCell>
        <mxCell id="Cb7vbwdoOXR-NI_GIhor-16" value="Id Producto" style="ellipse;whiteSpace=wrap;html=1;fillColor=#f5f5f5;strokeColor=#666666;gradientColor=#b3b3b3;" vertex="1" parent="1">
          <mxGeometry x="380" y="425" width="120" height="80" as="geometry" />
        </mxCell>
        <mxCell id="Cb7vbwdoOXR-NI_GIhor-17" value="Id Cliente" style="ellipse;whiteSpace=wrap;html=1;fillColor=#f5f5f5;gradientColor=#b3b3b3;strokeColor=#666666;" vertex="1" parent="1">
          <mxGeometry x="200" y="520" width="120" height="80" as="geometry" />
        </mxCell>
        <mxCell id="Cb7vbwdoOXR-NI_GIhor-18" value="Fecha de entrega" style="ellipse;whiteSpace=wrap;html=1;" vertex="1" parent="1">
          <mxGeometry x="460" y="670" width="120" height="80" as="geometry" />
        </mxCell>
        <mxCell id="Cb7vbwdoOXR-NI_GIhor-23" style="edgeStyle=orthogonalEdgeStyle;rounded=0;orthogonalLoop=1;jettySize=auto;html=1;exitX=0;exitY=0.5;exitDx=0;exitDy=0;entryX=0.947;entryY=0.21;entryDx=0;entryDy=0;entryPerimeter=0;" edge="1" parent="1" source="Cb7vbwdoOXR-NI_GIhor-3" target="Cb7vbwdoOXR-NI_GIhor-14">
          <mxGeometry relative="1" as="geometry" />
        </mxCell>
        <mxCell id="Cb7vbwdoOXR-NI_GIhor-27" style="edgeStyle=orthogonalEdgeStyle;rounded=0;orthogonalLoop=1;jettySize=auto;html=1;exitX=0.75;exitY=0;exitDx=0;exitDy=0;entryX=0.667;entryY=0.938;entryDx=0;entryDy=0;entryPerimeter=0;" edge="1" parent="1" source="Cb7vbwdoOXR-NI_GIhor-2" target="Cb7vbwdoOXR-NI_GIhor-16">
          <mxGeometry relative="1" as="geometry" />
        </mxCell>
        <mxCell id="Cb7vbwdoOXR-NI_GIhor-34" value="" style="edgeStyle=orthogonalEdgeStyle;rounded=0;orthogonalLoop=1;jettySize=auto;html=1;exitX=0.75;exitY=1;exitDx=0;exitDy=0;entryX=0;entryY=0;entryDx=0;entryDy=0;" edge="1" parent="1" source="Cb7vbwdoOXR-NI_GIhor-1" target="Cb7vbwdoOXR-NI_GIhor-33">
          <mxGeometry relative="1" as="geometry">
            <mxPoint x="230" y="180" as="sourcePoint" />
            <mxPoint x="370" y="550" as="targetPoint" />
          </mxGeometry>
        </mxCell>
        <mxCell id="Cb7vbwdoOXR-NI_GIhor-33" value="Realiza" style="rhombus;whiteSpace=wrap;html=1;fillColor=#d5e8d4;gradientColor=#97d077;strokeColor=#82b366;" vertex="1" parent="1">
          <mxGeometry x="260" y="320" width="80" height="80" as="geometry" />
        </mxCell>
        <mxCell id="Cb7vbwdoOXR-NI_GIhor-37" value="" style="edgeStyle=orthogonalEdgeStyle;rounded=0;orthogonalLoop=1;jettySize=auto;html=1;exitX=1;exitY=0;exitDx=0;exitDy=0;entryX=0;entryY=1;entryDx=0;entryDy=0;" edge="1" parent="1" source="Cb7vbwdoOXR-NI_GIhor-2" target="Cb7vbwdoOXR-NI_GIhor-36">
          <mxGeometry relative="1" as="geometry">
            <mxPoint x="490" y="550" as="sourcePoint" />
            <mxPoint x="730" y="180" as="targetPoint" />
            <Array as="points">
              <mxPoint x="560" y="550" />
            </Array>
          </mxGeometry>
        </mxCell>
        <mxCell id="Cb7vbwdoOXR-NI_GIhor-36" value="Incluye" style="rhombus;whiteSpace=wrap;html=1;fillColor=#d5e8d4;gradientColor=#97d077;strokeColor=#82b366;" vertex="1" parent="1">
          <mxGeometry x="550" y="330" width="80" height="80" as="geometry" />
        </mxCell>
      </root>
    </mxGraphModel>
  </diagram>
</mxfile>
